<svg xmlns="http://www.w3.org/2000/svg" viewBox="0 0 200 360" width="200" height="360">
  <defs>
    <linearGradient id="skin" x1="0" y1="0" x2="0" y2="1"><stop offset="0" stop-color="#f0dcc8"/><stop offset="1" stop-color="#e0c8a8"/></linearGradient>
    <linearGradient id="hair" x1="0" y1="0" x2="0" y2="1"><stop offset="0" stop-color="#3a2a1a"/><stop offset="1" stop-color="#1a1008"/></linearGradient>
    <linearGradient id="dress" x1="0" y1="0" x2="0" y2="1"><stop offset="0" stop-color="#d4a843"/><stop offset="0.6" stop-color="#8a7020"/><stop offset="1" stop-color="#5a4a12"/></linearGradient>
  </defs>
  <ellipse cx="100" cy="58" rx="50" ry="54" fill="url(#hair)"/>
  <path d="M50 58 Q48 26 60 16 Q78 4 100 2 Q122 4 140 16 Q152 26 150 58 Q148 90 134 102 Q116 114 100 102 Q84 114 66 102 Q52 90 50 58Z" fill="url(#hair)"/>
  <ellipse cx="100" cy="82" rx="34" ry="40" fill="url(#skin)"/>
  <ellipse cx="84" cy="80" rx="8" ry="10" fill="white"/>
  <ellipse cx="84" cy="82" rx="5.5" ry="6.5" fill="#2a1a0a"/>
  <ellipse cx="84" cy="81" rx="2.5" ry="3" fill="#0a0500"/>
  <ellipse cx="116" cy="80" rx="8" ry="10" fill="white"/>
  <ellipse cx="116" cy="82" rx="5.5" ry="6.5" fill="#2a1a0a"/>
  <ellipse cx="116" cy="81" rx="2.5" ry="3" fill="#0a0500"/>
  <path d="M74 68 Q83 63 93 67" stroke="#3a2a1a" stroke-width="2" fill="none"/>
  <path d="M107 67 Q117 63 126 68" stroke="#3a2a1a" stroke-width="2" fill="none"/>
  <path d="M90 100 Q100 108 110 100" stroke="#7a5a40" stroke-width="1.5" fill="none"/>
  <path d="M64 32 Q68 20 78 14 L88 42 Q76 36 64 32Z" fill="url(#hair)"/>
  <path d="M88 42 L98 8 Q100 6 102 8 L112 42 Q100 48 88 42Z" fill="url(#hair)"/>
  <path d="M112 42 L122 14 Q132 20 136 32 L112 42Z" fill="url(#hair)"/>
  <path d="M52 34 Q42 72 46 96 Q48 110 52 100 Q50 84 56 52Z" fill="url(#hair)" opacity="0.8"/>
  <path d="M148 34 Q158 72 154 96 Q152 110 148 100 Q150 84 144 52Z" fill="url(#hair)" opacity="0.8"/>
  <!-- Emperor crown -->
  <path d="M68 18 L74 2 L84 12 L94 0 L100 14 L106 0 L116 12 L126 2 L132 18 Z" fill="#d4a843" stroke="#8a7020" stroke-width="1.5"/>
  <circle cx="94" cy="8" r="3.5" fill="#e04040"/>
  <circle cx="100" cy="5" r="3.5" fill="#e04040"/>
  <circle cx="106" cy="8" r="3.5" fill="#e04040"/>
  <rect x="69" y="18" width="62" height="6" rx="2" fill="#d4a843" stroke="#8a7020" stroke-width="0.8"/>
  <rect x="91" y="115" width="18" height="20" rx="5" fill="url(#skin)"/>
  <path d="M64 132 L91 115 L100 130 L109 115 L136 132 L132 155 L100 166 L68 155Z" fill="#1a1a0a"/>
  <path d="M78 128 L95 118 L100 128 L105 118 L122 128 L118 148 L100 156 L82 148Z" fill="#d4a843"/>
  <path d="M48 155 L64 132 L136 132 L152 155 L156 260 L152 340 Q100 360 48 340 L44 260Z" fill="url(#dress)"/>
  <rect x="50" y="208" width="100" height="32" rx="5" fill="#d4a843" stroke="#8a7020" stroke-width="1.5"/>
  <rect x="68" y="212" width="64" height="24" rx="3" fill="#e8c060"/>
  <path d="M100 226 Q82 234 68 224 Q84 246 100 244 Q116 246 132 224 Q118 234 100 226Z" fill="#d4a843"/>
  <!-- Dragon emblem -->
  <circle cx="100" cy="238" r="8" fill="#e04040" opacity="0.8"/>
  <path d="M96 234 Q100 230 104 234 Q102 238 100 236 Q98 238 96 234Z" fill="#d4a843"/>
  <path d="M48 155 Q32 185 30 215 Q28 245 34 265 L48 255 Q42 225 48 182Z" fill="#6a5a1a"/>
  <path d="M50 155 Q34 185 32 215 L46 255 Q44 225 50 182Z" fill="#8a7020"/>
  <path d="M152 155 Q168 185 170 215 Q172 245 166 265 L152 255 Q158 225 152 182Z" fill="#6a5a1a"/>
  <path d="M150 155 Q166 185 168 215 L154 255 Q156 225 150 182Z" fill="#8a7020"/>
</svg>