<svg xmlns="http://www.w3.org/2000/svg" viewBox="0 0 200 360" width="200" height="360">
  <defs>
    <linearGradient id="skin" x1="0" y1="0" x2="0" y2="1"><stop offset="0" stop-color="#e8dae6"/><stop offset="1" stop-color="#d8c8d6"/></linearGradient>
    <linearGradient id="hair" x1="0" y1="0" x2="0" y2="1"><stop offset="0" stop-color="#7a5ca3"/><stop offset="1" stop-color="#3e2a5a"/></linearGradient>
    <linearGradient id="dress" x1="0" y1="0" x2="0" y2="1"><stop offset="0" stop-color="#7a5ca3"/><stop offset="0.6" stop-color="#3e2a5a"/><stop offset="1" stop-color="#24163a"/></linearGradient>
  </defs>
  <ellipse cx="100" cy="58" rx="48" ry="52" fill="url(#hair)"/>
  <path d="M52 58 Q48 28 60 18 Q76 6 100 5 Q124 6 140 18 Q152 28 148 58 Q146 88 132 98 Q116 108 100 98 Q84 108 68 98 Q54 88 52 58Z" fill="url(#hair)"/>
  <ellipse cx="100" cy="82" rx="30" ry="37" fill="url(#skin)"/>
  <ellipse cx="86" cy="79" rx="8" ry="10" fill="white"/>
  <ellipse cx="86" cy="81" rx="5" ry="6" fill="#5a3a7a"/>
  <ellipse cx="86" cy="80" rx="2.5" ry="3" fill="#2a1a3a"/>
  <ellipse cx="84" cy="76" rx="2" ry="1.5" fill="white" opacity="0.7"/>
  <ellipse cx="114" cy="79" rx="8" ry="10" fill="white"/>
  <ellipse cx="114" cy="81" rx="5" ry="6" fill="#5a3a7a"/>
  <ellipse cx="114" cy="80" rx="2.5" ry="3" fill="#2a1a3a"/>
  <ellipse cx="112" cy="76" rx="2" ry="1.5" fill="white" opacity="0.7"/>
  <path d="M75 66 Q84 62 93 65" stroke="#5a4a6a" stroke-width="1.5" fill="none"/>
  <path d="M107 65 Q116 62 125 66" stroke="#5a4a6a" stroke-width="1.5" fill="none"/>
  <path d="M93 97 Q100 103 107 97" stroke="#8a7a9a" stroke-width="1.3" fill="none"/>
  <ellipse cx="78" cy="90" rx="7" ry="3.5" fill="#b898c8" opacity="0.3"/>
  <ellipse cx="122" cy="90" rx="7" ry="3.5" fill="#b898c8" opacity="0.3"/>
  <path d="M66 34 Q70 22 78 16 L86 42 Q76 36 66 34Z" fill="url(#hair)"/>
  <path d="M86 42 L96 10 Q100 8 104 10 L114 42 Q100 48 86 42Z" fill="url(#hair)"/>
  <path d="M114 42 L122 18 Q130 24 134 34 L114 42Z" fill="url(#hair)"/>
  <path d="M54 36 Q44 72 48 94 Q50 106 54 98 Q52 82 58 54Z" fill="url(#hair)" opacity="0.8"/>
  <path d="M146 36 Q156 72 152 94 Q150 106 146 98 Q148 82 142 54Z" fill="url(#hair)" opacity="0.8"/>
  <!-- Head ornament -->
  <circle cx="80" cy="14" r="4" fill="#c0c0c0" stroke="#808080" stroke-width="0.8"/>
  <circle cx="80" cy="14" r="2" fill="#a0a0ff"/>
  <circle cx="120" cy="14" r="4" fill="#c0c0c0" stroke="#808080" stroke-width="0.8"/>
  <circle cx="120" cy="14" r="2" fill="#a0a0ff"/>
  <path d="M80 18 Q90 26 100 28 Q110 26 120 18" stroke="#c0c0c0" stroke-width="2" fill="none"/>
  <path d="M75 10 Q80 4 85 10" stroke="#c0c0c0" stroke-width="1.5" fill="none"/>
  <path d="M115 10 Q120 4 125 10" stroke="#c0c0c0" stroke-width="1.5" fill="none"/>
  <rect x="91" y="115" width="18" height="18" rx="5" fill="url(#skin)"/>
  <path d="M66 128 L91 115 L100 128 L109 115 L134 128 L130 148 L100 158 L70 148Z" fill="#1a1a2a"/>
  <path d="M80 126 L95 118 L100 126 L105 118 L120 126 L115 142 L100 150 L85 142Z" fill="#c0c0c0"/>
  <path d="M50 148 L66 128 L134 128 L150 148 L154 260 L150 340 Q100 360 50 340 L46 260Z" fill="url(#dress)"/>
  <rect x="52" y="200" width="96" height="28" rx="4" fill="#c0c0c0" stroke="#808080" stroke-width="1"/>
  <rect x="70" y="203" width="60" height="22" rx="3" fill="#e0e0e0"/>
  <path d="M100 214 Q84 220 72 212 Q86 232 100 230 Q114 232 128 212 Q116 220 100 214Z" fill="#c0c0c0"/>
  <!-- Moon ornament -->
  <circle cx="158" cy="146" r="12" fill="#e8e0a0" opacity="0.3"/>
  <path d="M158 134 Q168 142 168 146 Q168 150 158 158 Q148 150 148 146 Q148 142 158 134Z" fill="#e8e0a0" opacity="0.6"/>
  <path d="M50 148 Q34 178 32 208 Q30 238 36 258 L50 248 Q44 218 50 174Z" fill="#5a3a7a"/>
  <path d="M52 148 Q36 178 34 208 L48 248 Q46 218 52 174Z" fill="#6a4a8a"/>
  <path d="M150 148 Q166 178 168 208 Q170 238 164 258 L150 248 Q156 218 150 174Z" fill="#5a3a7a"/>
  <path d="M148 148 Q164 178 166 208 L152 248 Q154 218 148 174Z" fill="#6a4a8a"/>
</svg>