<svg xmlns="http://www.w3.org/2000/svg" viewBox="0 0 200 360" width="200" height="360">
  <defs>
    <linearGradient id="skin" x1="0" y1="0" x2="0" y2="1"><stop offset="0" stop-color="#fce4d6"/><stop offset="1" stop-color="#f5d0c5"/></linearGradient>
    <linearGradient id="hair" x1="0" y1="0" x2="0" y2="1"><stop offset="0" stop-color="#e8a020"/><stop offset="1" stop-color="#c47a10"/></linearGradient>
    <linearGradient id="dress" x1="0" y1="0" x2="0" y2="1"><stop offset="0" stop-color="#d4881f"/><stop offset="0.6" stop-color="#8a500f"/><stop offset="1" stop-color="#5a3408"/></linearGradient>
  </defs>
  <ellipse cx="100" cy="58" rx="48" ry="52" fill="url(#hair)"/>
  <path d="M52 58 Q50 28 58 16 Q74 4 100 3 Q126 4 142 16 Q150 28 148 58 Q146 90 134 102 Q116 114 100 102 Q84 114 66 102 Q54 90 52 58Z" fill="url(#hair)"/>
  <ellipse cx="100" cy="82" rx="31" ry="37" fill="url(#skin)"/>
  <ellipse cx="86" cy="80" rx="9" ry="11" fill="white"/>
  <ellipse cx="86" cy="82" rx="6" ry="7" fill="#6a4010"/>
  <ellipse cx="86" cy="81" rx="3" ry="3.5" fill="#1a0d05"/>
  <ellipse cx="84" cy="76" rx="2" ry="1.5" fill="white" opacity="0.8"/>
  <ellipse cx="114" cy="80" rx="9" ry="11" fill="white"/>
  <ellipse cx="114" cy="82" rx="6" ry="7" fill="#6a4010"/>
  <ellipse cx="114" cy="81" rx="3" ry="3.5" fill="#1a0d05"/>
  <ellipse cx="112" cy="76" rx="2" ry="1.5" fill="white" opacity="0.8"/>
  <path d="M76 68 Q84 63 93 66" stroke="#6a4a2a" stroke-width="1.8" fill="none"/>
  <path d="M107 66 Q116 63 124 68" stroke="#6a4a2a" stroke-width="1.8" fill="none"/>
  <path d="M92 98 Q100 106 108 98" stroke="#b07a5a" stroke-width="1.5" fill="none"/>
  <ellipse cx="78" cy="91" rx="7" ry="3.5" fill="#f0b080" opacity="0.3"/>
  <ellipse cx="122" cy="91" rx="7" ry="3.5" fill="#f0b080" opacity="0.3"/>
  <path d="M64 32 Q68 20 78 14 L86 40 Q76 34 64 32Z" fill="url(#hair)"/>
  <path d="M86 40 L96 8 Q100 6 104 8 L114 40 Q100 46 86 40Z" fill="url(#hair)"/>
  <path d="M114 40 L122 14 Q132 20 136 32 L114 40Z" fill="url(#hair)"/>
  <path d="M52 34 Q42 70 46 94 Q48 106 52 98 Q50 82 56 52Z" fill="url(#hair)" opacity="0.8"/>
  <path d="M148 34 Q158 70 154 94 Q152 106 148 98 Q150 82 144 52Z" fill="url(#hair)" opacity="0.8"/>
  <!-- Headband -->
  <path d="M60 30 Q80 22 100 22 Q120 22 140 30" stroke="#e04040" stroke-width="4" fill="none"/>
  <path d="M58 30 Q48 26 46 30 Q48 34 58 30Z" fill="#e04040"/>
  <path d="M142 30 Q152 26 154 30 Q152 34 142 30Z" fill="#e04040"/>
  <rect x="91" y="115" width="18" height="18" rx="5" fill="url(#skin)"/>
  <path d="M66 128 L91 115 L100 126 L109 115 L134 128 L130 148 L100 158 L70 148Z" fill="#1a1a1a"/>
  <path d="M80 126 L95 118 L100 126 L105 118 L120 126 L115 142 L100 150 L85 142Z" fill="#e04040"/>
  <path d="M50 148 L66 128 L134 128 L150 148 L154 260 L150 340 Q100 360 50 340 L46 260Z" fill="url(#dress)"/>
  <rect x="52" y="200" width="96" height="28" rx="4" fill="#d4a843" stroke="#8a7020" stroke-width="1"/>
  <rect x="70" y="203" width="60" height="22" rx="3" fill="#e8c060"/>
  <path d="M100 214 Q84 220 72 212 Q86 232 100 230 Q114 232 128 212 Q116 220 100 214Z" fill="#d4a843"/>
  <!-- Lantern -->
  <rect x="156" y="130" width="8" height="5" rx="2" fill="#8b0000"/>
  <rect x="153" y="134" width="14" height="24" rx="4" fill="#ff4444" opacity="0.9"/>
  <rect x="153" y="134" width="14" height="24" rx="4" fill="#ffcc00" opacity="0.4"/>
  <rect x="156" y="158" width="8" height="5" rx="2" fill="#8b0000"/>
  <line x1="160" y1="120" x2="160" y2="130" stroke="#8b0000" stroke-width="1.5"/>
  <line x1="160" y1="162" x2="160" y2="172" stroke="#8b0000" stroke-width="1.5"/>
  <ellipse cx="160" cy="146" rx="4" ry="6" fill="#ffff80" opacity="0.6"/>
  <path d="M50 148 Q34 178 32 208 Q30 238 36 258 L50 248 Q44 218 50 174Z" fill="#6a3a0a"/>
  <path d="M52 148 Q36 178 34 208 L48 248 Q46 218 52 174Z" fill="#8a4a0a"/>
  <path d="M150 148 Q166 178 168 208 Q170 238 164 258 L150 248 Q156 218 150 174Z" fill="#6a3a0a"/>
  <path d="M148 148 Q164 178 166 208 L152 248 Q154 218 148 174Z" fill="#8a4a0a"/>
</svg>