<svg xmlns="http://www.w3.org/2000/svg" viewBox="0 0 200 360" width="200" height="360">
  <defs>
    <linearGradient id="skin" x1="0" y1="0" x2="0" y2="1"><stop offset="0" stop-color="#fce4d6"/><stop offset="1" stop-color="#f5d0c5"/></linearGradient>
    <linearGradient id="hair" x1="0" y1="0" x2="0" y2="1"><stop offset="0" stop-color="#4a6fa5"/><stop offset="1" stop-color="#2a4a6f"/></linearGradient>
    <linearGradient id="dress" x1="0" y1="0" x2="0" y2="1"><stop offset="0" stop-color="#5c7eb5"/><stop offset="0.6" stop-color="#2a4a6f"/><stop offset="1" stop-color="#1a3048"/></linearGradient>
  </defs>
  <ellipse cx="100" cy="58" rx="48" ry="52" fill="url(#hair)"/>
  <path d="M52 58 Q50 30 62 22 Q78 10 100 8 Q122 10 138 22 Q150 30 148 58 Q145 85 130 95 Q115 105 100 95 Q85 105 70 95 Q55 85 52 58Z" fill="url(#hair)"/>
  <ellipse cx="100" cy="82" rx="32" ry="38" fill="url(#skin)"/>
  <ellipse cx="85" cy="80" rx="8.5" ry="10.5" fill="white"/>
  <ellipse cx="85" cy="82" rx="5.5" ry="6.5" fill="#3a5a7a"/>
  <ellipse cx="85" cy="81" rx="2.5" ry="3" fill="#1a2a3a"/>
  <ellipse cx="83" cy="77" rx="2" ry="1.5" fill="white" opacity="0.7"/>
  <ellipse cx="115" cy="80" rx="8.5" ry="10.5" fill="white"/>
  <ellipse cx="115" cy="82" rx="5.5" ry="6.5" fill="#3a5a7a"/>
  <ellipse cx="115" cy="81" rx="2.5" ry="3" fill="#1a2a3a"/>
  <ellipse cx="113" cy="77" rx="2" ry="1.5" fill="white" opacity="0.7"/>
  <path d="M76 68 Q83 64 92 67" stroke="#5a6a7a" stroke-width="1.8" fill="none"/>
  <path d="M108 67 Q117 64 124 68" stroke="#5a6a7a" stroke-width="1.8" fill="none"/>
  <path d="M92 98 Q100 104 108 98" stroke="#b07a7a" stroke-width="1.5" fill="none"/>
  <path d="M68 36 Q72 26 80 20 L88 44 Q78 38 68 36Z" fill="url(#hair)"/>
  <path d="M88 44 L96 12 Q100 10 104 12 L112 44 Q100 50 88 44Z" fill="url(#hair)"/>
  <path d="M112 44 L120 20 Q128 26 132 36 L112 44Z" fill="url(#hair)"/>
  <path d="M54 38 Q46 70 50 92 Q52 102 56 96 Q54 80 60 54Z" fill="url(#hair)" opacity="0.8"/>
  <path d="M146 38 Q154 70 150 92 Q148 102 144 96 Q146 80 140 54Z" fill="url(#hair)" opacity="0.8"/>
  <!-- Crown -->
  <path d="M72 16 L78 4 L86 12 L94 0 L100 12 L106 0 L114 12 L122 4 L128 16Z" fill="#d4a843" stroke="#8a7020" stroke-width="1.2"/>
  <circle cx="94" cy="8" r="3" fill="#e04040"/>
  <circle cx="100" cy="6" r="3" fill="#e04040"/>
  <circle cx="106" cy="8" r="3" fill="#e04040"/>
  <rect x="73" y="16" width="54" height="5" rx="2" fill="#d4a843" stroke="#8a7020" stroke-width="0.5"/>
  <rect x="91" y="115" width="18" height="18" rx="5" fill="url(#skin)"/>
  <path d="M68 128 L91 115 L100 126 L109 115 L132 128 L128 148 L100 158 L72 148Z" fill="#1a1a2a"/>
  <path d="M82 126 L95 118 L100 126 L105 118 L118 126 L115 142 L100 150 L85 142Z" fill="#d4a843"/>
  <path d="M52 148 L68 128 L132 128 L148 148 L152 260 L148 340 Q100 360 52 340 L48 260Z" fill="url(#dress)"/>
  <rect x="54" y="200" width="92" height="32" rx="4" fill="#d4a843" stroke="#8a7020" stroke-width="1"/>
  <rect x="72" y="203" width="56" height="26" rx="3" fill="#e8c060"/>
  <path d="M100 215 Q84 220 72 212 Q86 228 100 226 Q114 228 128 212 Q116 220 100 215Z" fill="#d4a843"/>
  <path d="M52 148 Q36 175 34 205 Q32 235 38 255 L52 245 Q46 215 52 172Z" fill="#3a5a7a"/>
  <path d="M54 148 Q38 175 36 205 L50 245 Q48 210 54 172Z" fill="#4a6a8a"/>
  <path d="M148 148 Q164 175 166 205 Q168 235 162 255 L148 245 Q154 215 148 172Z" fill="#3a5a7a"/>
  <path d="M146 148 Q162 175 164 205 L150 245 Q152 210 146 172Z" fill="#4a6a8a"/>
</svg>