<svg xmlns="http://www.w3.org/2000/svg" viewBox="0 0 200 360" width="200" height="360">
  <defs>
    <linearGradient id="skin" x1="0" y1="0" x2="0" y2="1"><stop offset="0" stop-color="#fce4d6"/><stop offset="1" stop-color="#f0d0c0"/></linearGradient>
    <linearGradient id="hair" x1="0" y1="0" x2="0" y2="1"><stop offset="0" stop-color="#8a6a5a"/><stop offset="1" stop-color="#5a3a2a"/></linearGradient>
    <linearGradient id="dress" x1="0" y1="0" x2="0" y2="1"><stop offset="0" stop-color="#6a8a9a"/><stop offset="0.6" stop-color="#3a5a6a"/><stop offset="1" stop-color="#1a3a4a"/></linearGradient>
  </defs>
  <ellipse cx="100" cy="58" rx="46" ry="50" fill="url(#hair)"/>
  <path d="M54 58 Q52 30 62 22 Q76 10 100 8 Q124 10 138 22 Q148 30 146 58 Q144 86 130 96 Q116 106 100 96 Q84 106 70 96 Q56 86 54 58Z" fill="url(#hair)"/>
  <ellipse cx="100" cy="80" rx="30" ry="36" fill="url(#skin)"/>
  <ellipse cx="87" cy="78" rx="8.5" ry="10.5" fill="white"/>
  <ellipse cx="87" cy="80" rx="5.5" ry="6.5" fill="#4a3a2a"/>
  <ellipse cx="87" cy="79" rx="2.5" ry="3" fill="#1a1008"/>
  <ellipse cx="85" cy="75" rx="2" ry="1.5" fill="white" opacity="0.7"/>
  <ellipse cx="113" cy="78" rx="8.5" ry="10.5" fill="white"/>
  <ellipse cx="113" cy="80" rx="5.5" ry="6.5" fill="#4a3a2a"/>
  <ellipse cx="113" cy="79" rx="2.5" ry="3" fill="#1a1008"/>
  <ellipse cx="111" cy="75" rx="2" ry="1.5" fill="white" opacity="0.7"/>
  <path d="M77 66 Q85 62 94 65" stroke="#4a3a2a" stroke-width="1.5" fill="none"/>
  <path d="M106 65 Q115 62 123 66" stroke="#4a3a2a" stroke-width="1.5" fill="none"/>
  <path d="M93 96 Q100 102 107 96" stroke="#806060" stroke-width="1.3" fill="none"/>
  <ellipse cx="79" cy="89" rx="7" ry="3.5" fill="#dfb0a0" opacity="0.3"/>
  <ellipse cx="121" cy="89" rx="7" ry="3.5" fill="#dfb0a0" opacity="0.3"/>
  <path d="M68 36 Q72 24 80 18 L88 44 Q78 38 68 36Z" fill="url(#hair)"/>
  <path d="M88 44 L96 12 Q100 10 104 12 L112 44 Q100 50 88 44Z" fill="url(#hair)"/>
  <path d="M112 44 L120 18 Q128 24 132 36 L112 44Z" fill="url(#hair)"/>
  <path d="M56 38 Q46 70 50 92 Q52 104 56 96 Q54 82 60 56Z" fill="url(#hair)" opacity="0.8"/>
  <path d="M144 38 Q154 70 150 92 Q148 104 144 96 Q146 82 140 56Z" fill="url(#hair)" opacity="0.8"/>
  <!-- Maid headband -->
  <rect x="68" y="30" width="64" height="6" rx="2" fill="white"/>
  <path d="M100 30 Q96 24 100 20 Q104 24 100 30Z" fill="white"/>
  <rect x="91" y="113" width="18" height="18" rx="5" fill="url(#skin)"/>
  <path d="M68 126 L91 113 L100 124 L109 113 L132 126 L128 146 L100 156 L72 146Z" fill="#1a1a1a"/>
  <path d="M82 124 L95 116 L100 124 L105 116 L118 124 L115 140 L100 148 L85 140Z" fill="white"/>
  <path d="M52 146 L68 126 L132 126 L148 146 L152 260 L148 340 Q100 360 52 340 L48 260Z" fill="url(#dress)"/>
  <rect x="54" y="196" width="92" height="26" rx="4" fill="white" stroke="#3a5a6a" stroke-width="1"/>
  <rect x="72" y="199" width="56" height="20" rx="3" fill="#f0f0f0"/>
  <path d="M100 210 Q84 215 74 208 Q88 226 100 224 Q112 226 126 208 Q116 215 100 210Z" fill="white"/>
  <!-- Broom -->
  <line x1="152" y1="180" x2="162" y2="260" stroke="#8b4513" stroke-width="3"/>
  <path d="M158 260 L145 270 L160 278 L156 262Z" fill="#c0a060"/>
  <path d="M164 262 L168 274 L162 272 L160 262Z" fill="#c0a060"/>
  <path d="M156 264 L162 280 L164 266 L158 262Z" fill="#b09050"/>
  <path d="M52 146 Q36 176 34 206 Q32 236 38 256 L52 246 Q46 216 52 172Z" fill="#4a6a7a"/>
  <path d="M54 146 Q38 176 36 206 L50 246 Q48 216 54 172Z" fill="#5a7a8a"/>
  <path d="M148 146 Q164 176 166 206 Q168 236 162 256 L148 246 Q154 216 148 172Z" fill="#4a6a7a"/>
  <path d="M146 146 Q162 176 164 206 L150 246 Q152 216 146 172Z" fill="#5a7a8a"/>
</svg>