<svg xmlns="http://www.w3.org/2000/svg" viewBox="0 0 200 360" width="200" height="360">
  <defs>
    <linearGradient id="skin" x1="0" y1="0" x2="0" y2="1"><stop offset="0" stop-color="#f0e6d6"/><stop offset="1" stop-color="#e0d0b8"/></linearGradient>
    <linearGradient id="hair" x1="0" y1="0" x2="0" y2="1"><stop offset="0" stop-color="#5a8f7b"/><stop offset="1" stop-color="#3a5f52"/></linearGradient>
    <linearGradient id="dress" x1="0" y1="0" x2="0" y2="1"><stop offset="0" stop-color="#6a9f8b"/><stop offset="0.6" stop-color="#3a5f52"/><stop offset="1" stop-color="#243f35"/></linearGradient>
  </defs>
  <ellipse cx="100" cy="58" rx="48" ry="52" fill="url(#hair)"/>
  <path d="M52 58 Q50 28 60 18 Q76 6 100 5 Q124 6 140 18 Q150 28 148 58 Q146 88 132 98 Q116 108 100 98 Q84 108 68 98 Q54 88 52 58Z" fill="url(#hair)"/>
  <ellipse cx="100" cy="82" rx="30" ry="37" fill="url(#skin)"/>
  <ellipse cx="86" cy="79" rx="8.5" ry="10.5" fill="white"/>
  <ellipse cx="86" cy="81" rx="5.5" ry="6.5" fill="#3a5a4a"/>
  <ellipse cx="86" cy="80" rx="2.5" ry="3" fill="#1a2a20"/>
  <ellipse cx="84" cy="76" rx="2" ry="1.5" fill="white" opacity="0.7"/>
  <ellipse cx="114" cy="79" rx="8.5" ry="10.5" fill="white"/>
  <ellipse cx="114" cy="81" rx="5.5" ry="6.5" fill="#3a5a4a"/>
  <ellipse cx="114" cy="80" rx="2.5" ry="3" fill="#1a2a20"/>
  <ellipse cx="112" cy="76" rx="2" ry="1.5" fill="white" opacity="0.7"/>
  <path d="M76 66 Q84 62 93 65" stroke="#4a5a4a" stroke-width="1.5" fill="none"/>
  <path d="M107 65 Q116 62 124 66" stroke="#4a5a4a" stroke-width="1.5" fill="none"/>
  <path d="M93 97 Q100 103 107 97" stroke="#7a8a7a" stroke-width="1.3" fill="none"/>
  <ellipse cx="78" cy="90" rx="7" ry="3.5" fill="#a0b8a0" opacity="0.3"/>
  <ellipse cx="122" cy="90" rx="7" ry="3.5" fill="#a0b8a0" opacity="0.3"/>
  <path d="M66 34 Q70 24 78 18 L86 42 Q76 36 66 34Z" fill="url(#hair)"/>
  <path d="M86 42 L96 10 Q100 8 104 10 L114 42 Q100 48 86 42Z" fill="url(#hair)"/>
  <path d="M114 42 L122 18 Q130 24 134 34 L114 42Z" fill="url(#hair)"/>
  <path d="M54 36 Q44 70 48 92 Q50 104 54 96 Q52 80 58 54Z" fill="url(#hair)" opacity="0.8"/>
  <path d="M146 36 Q156 70 152 92 Q150 104 146 96 Q148 80 142 54Z" fill="url(#hair)" opacity="0.8"/>
  <!-- Scholar cap -->
  <ellipse cx="100" cy="20" rx="40" ry="6" fill="#1a1a1a"/>
  <rect x="62" y="10" width="76" height="12" rx="6" fill="#1a1a1a"/>
  <rect x="91" y="115" width="18" height="18" rx="5" fill="url(#skin)"/>
  <path d="M68 128 L91 115 L100 126 L109 115 L132 128 L128 148 L100 158 L72 148Z" fill="#1a2a24"/>
  <path d="M82 126 L95 118 L100 126 L105 118 L118 126 L115 142 L100 150 L85 142Z" fill="#a0b8a0"/>
  <path d="M52 148 L68 128 L132 128 L148 148 L152 260 L148 340 Q100 360 52 340 L48 260Z" fill="url(#dress)"/>
  <rect x="54" y="198" width="92" height="28" rx="4" fill="#a0b8a0" stroke="#6a8f7b" stroke-width="1"/>
  <rect x="72" y="201" width="56" height="22" rx="3" fill="#c0d8c0"/>
  <path d="M100 213 Q84 218 74 210 Q88 228 100 226 Q112 228 126 210 Q116 218 100 213Z" fill="#a0b8a0"/>
  <!-- Scroll -->
  <rect x="158" y="140" width="10" height="40" rx="3" fill="#e8d8b8" stroke="#b8a880" stroke-width="0.8"/>
  <rect x="157" y="138" width="12" height="6" rx="2" fill="#c8b898"/>
  <rect x="157" y="178" width="12" height="6" rx="2" fill="#c8b898"/>
  <path d="M50 148 Q34 178 32 208 Q30 238 36 258 L50 248 Q44 218 50 174Z" fill="#3a5a4a"/>
  <path d="M52 148 Q36 178 34 208 L48 248 Q46 218 52 174Z" fill="#4a6a5a"/>
  <path d="M150 148 Q166 178 168 208 Q170 238 164 258 L150 248 Q156 218 150 174Z" fill="#3a5a4a"/>
  <path d="M148 148 Q164 178 166 208 L152 248 Q154 218 148 174Z" fill="#4a6a5a"/>
</svg>