<svg xmlns="http://www.w3.org/2000/svg" viewBox="0 0 200 360" width="200" height="360">
  <defs>
    <linearGradient id="skin" x1="0" y1="0" x2="0" y2="1"><stop offset="0" stop-color="#fce4d6"/><stop offset="1" stop-color="#f5d0c5"/></linearGradient>
    <linearGradient id="hair" x1="0" y1="0" x2="0" y2="1"><stop offset="0" stop-color="#e86a8e"/><stop offset="1" stop-color="#c44569"/></linearGradient>
    <linearGradient id="dress" x1="0" y1="0" x2="0" y2="1"><stop offset="0" stop-color="#d45579"/><stop offset="0.6" stop-color="#8b2f47"/><stop offset="1" stop-color="#5c1e30"/></linearGradient>
  </defs>
  <ellipse cx="100" cy="58" rx="48" ry="52" fill="url(#hair)"/>
  <path d="M52 58 Q50 30 60 20 Q75 8 100 6 Q125 8 140 20 Q150 30 148 58 Q145 85 130 95 Q115 105 100 95 Q85 105 70 95 Q55 85 52 58Z" fill="url(#hair)"/>
  <ellipse cx="100" cy="82" rx="32" ry="38" fill="url(#skin)"/>
  <ellipse cx="87" cy="80" rx="9" ry="11" fill="white"/>
  <ellipse cx="87" cy="82" rx="6" ry="7" fill="#5c2e3a"/>
  <ellipse cx="87" cy="81" rx="3" ry="3.5" fill="#1a0d10"/>
  <ellipse cx="85" cy="77" rx="2" ry="1.5" fill="white" opacity="0.8"/>
  <ellipse cx="113" cy="80" rx="9" ry="11" fill="white"/>
  <ellipse cx="113" cy="82" rx="6" ry="7" fill="#5c2e3a"/>
  <ellipse cx="113" cy="81" rx="3" ry="3.5" fill="#1a0d10"/>
  <ellipse cx="111" cy="77" rx="2" ry="1.5" fill="white" opacity="0.8"/>
  <path d="M78 68 Q84 64 93 67" stroke="#8b5a6a" stroke-width="1.8" fill="none"/>
  <path d="M107 67 Q116 64 122 68" stroke="#8b5a6a" stroke-width="1.8" fill="none"/>
  <path d="M92 98 Q100 105 108 98" stroke="#c4757a" stroke-width="1.5" fill="none"/>
  <ellipse cx="78" cy="92" rx="8" ry="4" fill="#f0a0b0" opacity="0.4"/>
  <ellipse cx="122" cy="92" rx="8" ry="4" fill="#f0a0b0" opacity="0.4"/>
  <path d="M72 38 Q75 28 82 22 L88 42 Q80 38 72 38Z" fill="url(#hair)"/>
  <path d="M88 42 L95 14 Q100 12 105 14 L112 42 Q100 48 88 42Z" fill="url(#hair)"/>
  <path d="M112 42 L118 22 Q125 28 128 38 L112 42Z" fill="url(#hair)"/>
  <path d="M55 40 Q48 70 52 90 Q54 100 58 95 Q56 80 62 55Z" fill="url(#hair)" opacity="0.8"/>
  <path d="M145 40 Q152 70 148 90 Q146 100 142 95 Q144 80 138 55Z" fill="url(#hair)" opacity="0.8"/>
  <path d="M75 14 L80 6 L87 12 L93 0 L100 10 L107 0 L113 12 L120 6 L125 14Z" fill="#d4a843" stroke="#8a7020" stroke-width="1"/>
  <circle cx="93" cy="8" r="2.5" fill="#ff6680"/>
  <circle cx="100" cy="6" r="2.5" fill="#ff6680"/>
  <circle cx="107" cy="8" r="2.5" fill="#ff6680"/>
  <rect x="76" y="14" width="48" height="4" rx="2" fill="#d4a843" stroke="#8a7020" stroke-width="0.5"/>
  <rect x="91" y="115" width="18" height="18" rx="5" fill="url(#skin)"/>
  <path d="M72 128 L91 115 L100 125 L109 115 L128 128 L125 145 L100 155 L75 145Z" fill="#2c1e1e"/>
  <path d="M82 126 L95 118 L100 125 L105 118 L118 126 L115 140 L100 148 L85 140Z" fill="#d4a843"/>
  <path d="M55 145 L72 128 L128 128 L145 145 L150 260 L145 340 Q100 360 55 340 L50 260Z" fill="url(#dress)"/>
  <rect x="58" y="195" width="84" height="30" rx="4" fill="#d4a843" stroke="#8a7020" stroke-width="1"/>
  <rect x="75" y="198" width="50" height="24" rx="3" fill="#e8c060"/>
  <path d="M100 210 Q85 215 75 208 Q88 222 100 220 Q112 222 125 208 Q115 215 100 210Z" fill="#d4a843"/>
  <path d="M55 145 Q40 170 38 200 Q36 230 42 250 L55 240 Q50 210 55 170Z" fill="#b04a68"/>
  <path d="M56 145 Q42 170 40 200 L54 240 Q50 210 58 170Z" fill="#c45574"/>
  <path d="M145 145 Q160 170 162 200 Q164 230 158 250 L145 240 Q150 210 145 170Z" fill="#b04a68"/>
  <path d="M144 145 Q158 170 160 200 L146 240 Q150 210 142 170Z" fill="#c45574"/>
  <circle cx="57" cy="155" r="3" fill="#ffcc00"/>
  <circle cx="143" cy="155" r="3" fill="#ffcc00"/>
</svg>